<svg width="144" height="40" viewBox="0 0 144 40" fill="none" xmlns="http://www.w3.org/2000/svg">
<path d="M20.154 12L4.15399 20V28M20.154 20L12.154 24" stroke="white" stroke-opacity="0.6" stroke-width="2" stroke-linejoin="round"/>
<path d="M20.154 28L4.15399 20V28L20.154 36V28Z" stroke="white" stroke-opacity="0.6" stroke-width="2" stroke-linejoin="round"/>
<path d="M36.154 20V12L20.154 4V12L28.154 16" stroke="white" stroke-opacity="0.6" stroke-width="2" stroke-linejoin="round"/>
<path d="M20.154 20L36.154 12V20L20.154 28V20Z" stroke="white" stroke-opacity="0.6" stroke-width="2" stroke-linejoin="round"/>
<path d="M48.154 27.126V8.64602H62.014V11.754H52.018V16.346H59.886V19.314H52.018V24.018H62.406V27.126H48.154Z" fill="white" fill-opacity="0.6"/>
<path d="M63.4807 33.006V13.126H66.9247L67.1767 17.578L66.7007 17.074C66.8687 16.2527 67.1767 15.5247 67.6247 14.89C68.0914 14.2554 68.6794 13.7607 69.3887 13.406C70.0981 13.0327 70.8914 12.846 71.7687 12.846C72.9074 12.846 73.9247 13.1354 74.8207 13.714C75.7167 14.2927 76.4167 15.1234 76.9207 16.206C77.4434 17.27 77.7047 18.5674 77.7047 20.098C77.7047 21.6287 77.4434 22.9447 76.9207 24.046C76.3981 25.1287 75.6794 25.9594 74.7647 26.538C73.8687 27.1167 72.8421 27.406 71.6847 27.406C70.4527 27.406 69.4261 27.0607 68.6047 26.37C67.8021 25.6794 67.2514 24.8114 66.9527 23.766L67.3167 23.178V33.006H63.4807ZM70.5647 24.466C71.5914 24.466 72.3941 24.102 72.9727 23.374C73.5701 22.6274 73.8687 21.5447 73.8687 20.126C73.8687 18.7074 73.5794 17.634 73.0007 16.906C72.4407 16.1594 71.6474 15.786 70.6207 15.786C69.9674 15.786 69.3887 15.9634 68.8847 16.318C68.3994 16.654 68.0167 17.1487 67.7367 17.802C67.4567 18.4367 67.3167 19.2114 67.3167 20.126C67.3167 21.0034 67.4474 21.778 67.7087 22.45C67.9701 23.1034 68.3434 23.6074 68.8287 23.962C69.3327 24.298 69.9114 24.466 70.5647 24.466Z" fill="white" fill-opacity="0.6"/>
<path d="M80.9674 11.11C80.1648 11.11 79.5674 10.942 79.1754 10.606C78.7834 10.2514 78.5874 9.73802 78.5874 9.06602C78.5874 8.37535 78.7834 7.86202 79.1754 7.52602C79.5674 7.17135 80.1648 6.99402 80.9674 6.99402C81.7701 6.99402 82.3674 7.17135 82.7594 7.52602C83.1514 7.86202 83.3474 8.37535 83.3474 9.06602C83.3474 9.73802 83.1514 10.2514 82.7594 10.606C82.3674 10.942 81.7701 11.11 80.9674 11.11ZM82.8714 13.126V27.126H79.0354V13.126H82.8714Z" fill="white" fill-opacity="0.6"/>
<path d="M91.2938 12.846C92.5444 12.846 93.5991 13.0327 94.4578 13.406C95.3351 13.7607 96.0351 14.2554 96.5578 14.89C97.0991 15.506 97.4818 16.1967 97.7058 16.962L94.1218 18.25C93.9351 17.41 93.6178 16.7754 93.1698 16.346C92.7218 15.9167 92.1151 15.702 91.3498 15.702C90.6404 15.702 90.0338 15.87 89.5298 16.206C89.0258 16.5234 88.6431 17.018 88.3818 17.69C88.1204 18.3434 87.9898 19.1647 87.9898 20.154C87.9898 21.1434 88.1204 21.9647 88.3818 22.618C88.6618 23.2714 89.0538 23.7567 89.5578 24.074C90.0804 24.3914 90.6871 24.55 91.3778 24.55C91.9378 24.55 92.4138 24.4567 92.8058 24.27C93.1978 24.0647 93.5151 23.7754 93.7578 23.402C94.0191 23.0287 94.1964 22.5807 94.2898 22.058L97.7618 23.178C97.5564 24.018 97.1738 24.7554 96.6138 25.39C96.0538 26.0247 95.3351 26.5194 94.4578 26.874C93.5804 27.2287 92.5631 27.406 91.4058 27.406C89.9684 27.406 88.6991 27.1167 87.5978 26.538C86.4964 25.9594 85.6471 25.1287 85.0498 24.046C84.4524 22.9634 84.1538 21.6567 84.1538 20.126C84.1538 18.5954 84.4524 17.2887 85.0498 16.206C85.6471 15.1234 86.4871 14.2927 87.5698 13.714C88.6524 13.1354 89.8938 12.846 91.2938 12.846Z" fill="white" fill-opacity="0.6"/>
<path d="M106.274 8.64602C109.168 8.64602 111.408 9.44869 112.994 11.054C114.581 12.6407 115.374 14.918 115.374 17.886C115.374 20.8354 114.581 23.1127 112.994 24.718C111.408 26.3234 109.168 27.126 106.274 27.126H99.1345V8.64602H106.274ZM106.078 24.046C107.833 24.046 109.149 23.5234 110.026 22.478C110.922 21.414 111.37 19.8834 111.37 17.886C111.37 15.8887 110.922 14.3674 110.026 13.322C109.149 12.258 107.833 11.726 106.078 11.726H102.998V24.046H106.078Z" fill="white" fill-opacity="0.6"/>
<path d="M123.363 27.406C121.889 27.406 120.601 27.1167 119.499 26.538C118.417 25.9594 117.577 25.1287 116.979 24.046C116.382 22.9634 116.083 21.6567 116.083 20.126C116.083 18.5954 116.382 17.2887 116.979 16.206C117.577 15.1234 118.407 14.2927 119.471 13.714C120.554 13.1354 121.786 12.846 123.167 12.846C124.586 12.846 125.79 13.1354 126.779 13.714C127.769 14.274 128.525 15.0487 129.047 16.038C129.57 17.0087 129.831 18.1194 129.831 19.37C129.831 19.7434 129.822 20.098 129.803 20.434C129.785 20.77 129.757 21.0687 129.719 21.33H118.547V18.67H128.039L126.191 19.342C126.191 18.166 125.921 17.2607 125.379 16.626C124.857 15.9914 124.11 15.674 123.139 15.674C122.43 15.674 121.814 15.842 121.291 16.178C120.787 16.514 120.405 17.018 120.143 17.69C119.882 18.3434 119.751 19.174 119.751 20.182C119.751 21.1714 119.891 21.9927 120.171 22.646C120.47 23.2807 120.881 23.7567 121.403 24.074C121.945 24.3914 122.589 24.55 123.335 24.55C124.157 24.55 124.819 24.3914 125.323 24.074C125.827 23.7567 126.219 23.318 126.499 22.758L129.551 23.934C129.253 24.662 128.795 25.2874 128.179 25.81C127.582 26.3327 126.863 26.734 126.023 27.014C125.202 27.2754 124.315 27.406 123.363 27.406Z" fill="white" fill-opacity="0.6"/>
<path d="M139.829 13.126H143.805L138.485 27.126H134.061L128.741 13.126H132.857L136.301 24.186L139.829 13.126Z" fill="white" fill-opacity="0.6"/>
</svg>
