<svg width="169" height="40" viewBox="0 0 169 40" fill="none" xmlns="http://www.w3.org/2000/svg">
<rect x="24.2048" y="9.79993" width="6.8" height="6.8" fill="white" fill-opacity="0.6"/>
<rect x="17.4048" y="16.6" width="6.8" height="6.8" fill="white" fill-opacity="0.6"/>
<rect x="17.4048" y="16.6" width="6.8" height="6.8" fill="white" fill-opacity="0.6"/>
<rect x="24.2048" y="23.4" width="6.8" height="6.8" fill="white" fill-opacity="0.6"/>
<rect x="17.4048" y="30.2001" width="6.8" height="6.8" fill="white" fill-opacity="0.6"/>
<rect x="10.6048" y="30.2001" width="6.8" height="6.8" fill="white" fill-opacity="0.6"/>
<rect x="17.4048" y="3" width="6.8" height="6.8" fill="white" fill-opacity="0.6"/>
<path d="M10.6048 3H17.4048V9.8H10.6048V3Z" fill="white" fill-opacity="0.6"/>
<path d="M52.2608 28.896H52.1008C51.7381 29.8773 51.1408 30.6454 50.3088 31.2C49.4981 31.7547 48.5381 32.032 47.4288 32.032C45.3168 32.032 43.6848 31.2747 42.5328 29.76C41.3808 28.224 40.8048 26.08 40.8048 23.328C40.8048 20.576 41.3808 18.4427 42.5328 16.928C43.6848 15.392 45.3168 14.624 47.4288 14.624C48.5381 14.624 49.4981 14.9014 50.3088 15.456C51.1408 15.9894 51.7381 16.7573 52.1008 17.76H52.2608V7.96802H55.7488V31.648H52.2608V28.896ZM48.4848 29.024C49.5515 29.024 50.4475 28.768 51.1728 28.256C51.8981 27.7227 52.2608 27.0294 52.2608 26.176V20.48C52.2608 19.6267 51.8981 18.944 51.1728 18.432C50.4475 17.8987 49.5515 17.632 48.4848 17.632C47.2688 17.632 46.2981 18.0267 45.5728 18.816C44.8475 19.584 44.4848 20.608 44.4848 21.888V24.768C44.4848 26.048 44.8475 27.0827 45.5728 27.872C46.2981 28.64 47.2688 29.024 48.4848 29.024Z" fill="white" fill-opacity="0.6"/>
<path d="M70.9263 31.648C70.009 31.648 69.305 31.392 68.8143 30.88C68.3236 30.3467 68.025 29.6747 67.9183 28.864H67.7583C67.4383 29.9094 66.8516 30.6987 65.9983 31.232C65.145 31.7654 64.1103 32.032 62.8943 32.032C61.1663 32.032 59.833 31.584 58.8943 30.688C57.977 29.792 57.5183 28.5867 57.5183 27.072C57.5183 25.408 58.1156 24.16 59.3103 23.328C60.5263 22.496 62.297 22.08 64.6223 22.08H67.6303V20.672C67.6303 19.648 67.353 18.8587 66.7983 18.304C66.2436 17.7494 65.3796 17.472 64.2063 17.472C63.225 17.472 62.425 17.6854 61.8063 18.112C61.1876 18.5387 60.665 19.0827 60.2383 19.744L58.1583 17.856C58.713 16.9174 59.4916 16.1494 60.4943 15.552C61.497 14.9334 62.809 14.624 64.4303 14.624C66.585 14.624 68.2383 15.1254 69.3903 16.128C70.5423 17.1307 71.1183 18.5707 71.1183 20.448V28.8H72.8783V31.648H70.9263ZM63.8863 29.376C64.9743 29.376 65.8703 29.1414 66.5743 28.672C67.2783 28.1814 67.6303 27.5307 67.6303 26.72V24.32H64.6863C62.2756 24.32 61.0703 25.0667 61.0703 26.56V27.136C61.0703 27.8827 61.3156 28.448 61.8063 28.832C62.3183 29.1947 63.0116 29.376 63.8863 29.376Z" fill="white" fill-opacity="0.6"/>
<path d="M78.8111 31.648C77.5951 31.648 76.6777 31.3387 76.0591 30.72C75.4404 30.08 75.1311 29.184 75.1311 28.032V17.856H72.5391V15.008H73.9471C74.5231 15.008 74.9177 14.88 75.1311 14.624C75.3657 14.368 75.4831 13.952 75.4831 13.376V10.464H78.6191V15.008H82.1071V17.856H78.6191V28.8H81.8511V31.648H78.8111Z" fill="white" fill-opacity="0.6"/>
<path d="M96.0826 31.648C95.1652 31.648 94.4612 31.392 93.9706 30.88C93.4799 30.3467 93.1812 29.6747 93.0746 28.864H92.9146C92.5946 29.9094 92.0079 30.6987 91.1546 31.232C90.3012 31.7654 89.2666 32.032 88.0506 32.032C86.3226 32.032 84.9892 31.584 84.0506 30.688C83.1332 29.792 82.6746 28.5867 82.6746 27.072C82.6746 25.408 83.2719 24.16 84.4666 23.328C85.6826 22.496 87.4532 22.08 89.7786 22.08H92.7866V20.672C92.7866 19.648 92.5092 18.8587 91.9546 18.304C91.3999 17.7494 90.5359 17.472 89.3626 17.472C88.3812 17.472 87.5812 17.6854 86.9626 18.112C86.3439 18.5387 85.8212 19.0827 85.3946 19.744L83.3146 17.856C83.8692 16.9174 84.6479 16.1494 85.6506 15.552C86.6532 14.9334 87.9652 14.624 89.5866 14.624C91.7412 14.624 93.3946 15.1254 94.5466 16.128C95.6986 17.1307 96.2746 18.5707 96.2746 20.448V28.8H98.0346V31.648H96.0826ZM89.0426 29.376C90.1306 29.376 91.0266 29.1414 91.7306 28.672C92.4346 28.1814 92.7866 27.5307 92.7866 26.72V24.32H89.8426C87.4319 24.32 86.2266 25.0667 86.2266 26.56V27.136C86.2266 27.8827 86.4719 28.448 86.9626 28.832C87.4746 29.1947 88.1679 29.376 89.0426 29.376Z" fill="white" fill-opacity="0.6"/>
<path d="M99.7091 9.31202H109.597C111.453 9.31202 112.904 9.83468 113.949 10.88C115.016 11.9254 115.549 13.3227 115.549 15.072C115.549 15.904 115.432 16.6187 115.197 17.216C114.962 17.792 114.664 18.272 114.301 18.656C113.938 19.0187 113.522 19.296 113.053 19.488C112.584 19.6587 112.125 19.7654 111.677 19.808V20C112.125 20.0214 112.616 20.128 113.149 20.32C113.704 20.512 114.216 20.8213 114.685 21.248C115.154 21.6533 115.549 22.1867 115.869 22.848C116.189 23.488 116.349 24.2774 116.349 25.216C116.349 26.112 116.2 26.9547 115.901 27.744C115.624 28.5334 115.229 29.216 114.717 29.792C114.205 30.368 113.597 30.8267 112.893 31.168C112.189 31.488 111.421 31.648 110.589 31.648H99.7091V9.31202ZM103.325 28.544H109.533C110.472 28.544 111.208 28.2987 111.741 27.808C112.274 27.3174 112.541 26.6134 112.541 25.696V24.608C112.541 23.6907 112.274 22.9867 111.741 22.496C111.208 22.0054 110.472 21.76 109.533 21.76H103.325V28.544ZM103.325 18.752H108.925C109.821 18.752 110.514 18.528 111.005 18.08C111.496 17.6107 111.741 16.9494 111.741 16.096V15.072C111.741 14.2187 111.496 13.568 111.005 13.12C110.514 12.6507 109.821 12.416 108.925 12.416H103.325V18.752Z" fill="white" fill-opacity="0.6"/>
<path d="M118.547 15.008H122.035V31.648H118.547V15.008Z" fill="white" fill-opacity="0.6"/>
<path d="M129.624 31.648C128.408 31.648 127.49 31.3387 126.872 30.72C126.253 30.08 125.944 29.184 125.944 28.032V17.856H123.352V15.008H124.76C125.336 15.008 125.73 14.88 125.944 14.624C126.178 14.368 126.296 13.952 126.296 13.376V10.464H129.432V15.008H132.92V17.856H129.432V28.8H132.664V31.648H129.624Z" fill="white" fill-opacity="0.6"/>
<path d="M141.106 32.032C139.911 32.032 138.845 31.8293 137.906 31.424C136.967 31.0187 136.167 30.4427 135.506 29.696C134.845 28.928 134.333 28.0107 133.97 26.944C133.629 25.856 133.458 24.6507 133.458 23.328C133.458 22.0054 133.629 20.8107 133.97 19.744C134.333 18.656 134.845 17.7387 135.506 16.992C136.167 16.224 136.967 15.6374 137.906 15.232C138.845 14.8267 139.911 14.624 141.106 14.624C142.322 14.624 143.389 14.8374 144.306 15.264C145.245 15.6907 146.023 16.288 146.642 17.056C147.261 17.8027 147.719 18.6774 148.018 19.68C148.338 20.6827 148.498 21.76 148.498 22.912V24.224H137.074V24.768C137.074 26.048 137.447 27.104 138.194 27.936C138.962 28.7467 140.05 29.152 141.458 29.152C142.482 29.152 143.346 28.928 144.05 28.48C144.754 28.032 145.351 27.424 145.842 26.656L147.89 28.672C147.271 29.696 146.375 30.5174 145.202 31.136C144.029 31.7334 142.663 32.032 141.106 32.032ZM141.106 17.344C140.509 17.344 139.954 17.4507 139.442 17.664C138.951 17.8774 138.525 18.176 138.162 18.56C137.821 18.944 137.554 19.4027 137.362 19.936C137.17 20.4694 137.074 21.056 137.074 21.696V21.92H144.818V21.6C144.818 20.32 144.487 19.296 143.826 18.528C143.165 17.7387 142.258 17.344 141.106 17.344Z" fill="white" fill-opacity="0.6"/>
<path d="M155.639 32.032C154.061 32.032 152.738 31.7547 151.671 31.2C150.605 30.6454 149.677 29.8773 148.887 28.896L151.127 26.848C151.746 27.5947 152.429 28.1814 153.175 28.608C153.943 29.0133 154.829 29.216 155.831 29.216C156.855 29.216 157.613 29.024 158.103 28.64C158.615 28.2347 158.871 27.68 158.871 26.976C158.871 26.4427 158.69 25.9947 158.327 25.632C157.986 25.248 157.378 25.0027 156.503 24.896L154.967 24.704C153.261 24.4907 151.917 24 150.935 23.232C149.975 22.4427 149.495 21.28 149.495 19.744C149.495 18.9334 149.645 18.2187 149.943 17.6C150.242 16.96 150.658 16.4267 151.191 16C151.746 15.552 152.397 15.2107 153.143 14.976C153.911 14.7414 154.754 14.624 155.671 14.624C157.165 14.624 158.381 14.8587 159.319 15.328C160.279 15.7973 161.133 16.448 161.879 17.28L159.735 19.328C159.309 18.816 158.743 18.3787 158.039 18.016C157.357 17.632 156.567 17.44 155.671 17.44C154.711 17.44 153.997 17.632 153.527 18.016C153.079 18.4 152.855 18.9014 152.855 19.52C152.855 20.16 153.058 20.64 153.463 20.96C153.869 21.28 154.519 21.5147 155.415 21.664L156.951 21.856C158.786 22.1334 160.119 22.6774 160.951 23.488C161.805 24.2774 162.231 25.344 162.231 26.688C162.231 27.4987 162.071 28.2347 161.751 28.896C161.453 29.536 161.015 30.0907 160.439 30.56C159.863 31.0294 159.17 31.392 158.359 31.648C157.549 31.904 156.642 32.032 155.639 32.032Z" fill="white" fill-opacity="0.6"/>
<path d="M166.128 32.032C165.339 32.032 164.752 31.8293 164.368 31.424C163.984 30.9974 163.792 30.4747 163.792 29.856V29.376C163.792 28.7574 163.984 28.2453 164.368 27.84C164.752 27.4134 165.339 27.2 166.128 27.2C166.918 27.2 167.504 27.4134 167.888 27.84C168.272 28.2453 168.464 28.7574 168.464 29.376V29.856C168.464 30.4747 168.272 30.9974 167.888 31.424C167.504 31.8293 166.918 32.032 166.128 32.032Z" fill="white" fill-opacity="0.6"/>
</svg>
