<svg width="170" height="40" viewBox="0 0 170 40" fill="none" xmlns="http://www.w3.org/2000/svg">
<g clip-path="url(#clip0_23_1308)">
<path d="M40.4643 0H23.0305C22.1396 0 21.6935 1.07714 22.3234 1.70711L38.7572 18.1409C39.3872 18.7708 40.4643 18.3247 40.4643 17.4338V0Z" fill="white" fill-opacity="0.6"/>
<path d="M30.928 10.228H5.98443C4.20262 10.228 3.31029 12.3823 4.57022 13.6422L27.5137 36.5858C28.7737 37.8457 30.928 36.9534 30.928 35.1716V10.228Z" fill="white" fill-opacity="0.6"/>
<path fill-rule="evenodd" clip-rule="evenodd" d="M30.928 23.3468V10.228H17.8092C17.2268 13.6119 18.1395 17.2875 21.004 20.152C23.8685 23.0165 27.5441 23.9292 30.928 23.3468Z" fill="white" fill-opacity="0.6"/>
</g>
<path d="M48.4643 24.346C48.4643 28.309 51.651 31.0054 56.6762 31.0054C61.6606 31.0054 65.1333 28.4724 65.1333 24.3869C65.1333 21.2818 63.4174 19.7293 60.0264 18.9531L56.3902 18.0951C54.6743 17.6866 53.7755 16.9512 53.7755 15.8072C53.7755 14.2956 54.9194 13.3967 56.8805 13.3967C58.8007 13.3967 59.9447 14.4998 59.9855 16.2158H64.7247C64.6839 12.2936 61.6197 9.6789 57.0848 9.6789C52.4273 9.6789 49.0771 12.0485 49.0771 16.0115C49.0771 19.2391 50.8339 20.955 54.47 21.7721L58.1062 22.6301C59.9038 23.0386 60.4349 23.774 60.4349 24.7954C60.4349 26.2662 59.1684 27.2059 56.8397 27.2059C54.5518 27.2059 53.2444 26.1028 53.2035 24.346H48.4643Z" fill="white" fill-opacity="0.6"/>
<path d="M73.2386 30.4743V14.459H77.1608V10.2917H73.2386V4H68.2543V10.2917H64.373V14.459H68.2543V30.4743H73.2386Z" fill="white" fill-opacity="0.6"/>
<path d="M83.592 31.0054C86.7378 31.0054 89.4751 29.5755 90.3331 27.4919L90.7008 30.4743H95.0723V18.2177C95.0723 12.6205 91.7222 9.6789 86.2884 9.6789C80.8138 9.6789 77.2185 12.5388 77.2185 16.9103H81.4675C81.4675 14.7858 83.1017 13.5602 86.0433 13.5602C88.5763 13.5602 90.2105 14.6633 90.2105 17.4006V17.85L84.1639 18.2994C79.3839 18.6671 76.6874 20.9958 76.6874 24.7137C76.6874 28.5132 79.3022 31.0054 83.592 31.0054ZM85.2262 27.2467C82.9791 27.2467 81.7535 26.3479 81.7535 24.5094C81.7535 22.8752 82.9383 21.8538 86.0433 21.5678L90.2514 21.241V22.3032C90.2514 25.4082 88.2903 27.2467 85.2262 27.2467Z" fill="white" fill-opacity="0.6"/>
<path d="M110.081 10.21C109.264 10.0057 108.569 9.92403 107.874 9.92403C105.178 9.92403 103.258 11.2723 102.4 13.2742L102.114 10.3326H97.4155V30.4743H102.4V20.669C102.4 16.7469 104.647 14.8267 108.242 14.8267H110.081V10.21Z" fill="white" fill-opacity="0.6"/>
<path d="M109.348 24.346C109.348 28.309 112.535 31.0054 117.56 31.0054C122.545 31.0054 126.017 28.4724 126.017 24.3869C126.017 21.2818 124.302 19.7293 120.911 18.9531L117.274 18.0951C115.558 17.6866 114.66 16.9512 114.66 15.8072C114.66 14.2956 115.804 13.3967 117.765 13.3967C119.685 13.3967 120.829 14.4998 120.87 16.2158H125.609C125.568 12.2936 122.504 9.6789 117.969 9.6789C113.311 9.6789 109.961 12.0485 109.961 16.0115C109.961 19.2391 111.718 20.955 115.354 21.7721L118.99 22.6301C120.788 23.0386 121.319 23.774 121.319 24.7954C121.319 26.2662 120.053 27.2059 117.724 27.2059C115.436 27.2059 114.129 26.1028 114.088 24.346H109.348Z" fill="white" fill-opacity="0.6"/>
<path d="M140.946 10.2917V20.8733C140.946 24.7137 139.434 26.5522 136.288 26.5522C133.51 26.5522 131.998 24.9997 131.998 21.1593V10.2917H127.014V22.9161C127.014 27.8596 129.751 31.0054 134.409 31.0054C137.105 31.0054 139.72 29.6981 140.946 27.7779L141.313 30.4743H145.93V10.2917H140.946Z" fill="white" fill-opacity="0.6"/>
<path d="M148.525 36H153.509V27.7779C154.775 29.8206 157.39 31.0054 160.414 31.0054C166.419 31.0054 169.851 26.4296 169.851 20.1379C169.851 13.8053 166.092 9.6789 160.414 9.6789C157.349 9.6789 154.694 11.0271 153.468 13.3559L153.141 10.2917H148.525V36ZM153.55 20.383C153.55 16.7469 155.797 14.2139 159.229 14.2139C162.742 14.2139 164.826 16.7877 164.826 20.383C164.826 23.9783 162.742 26.5113 159.229 26.5113C155.797 26.5113 153.55 24.0192 153.55 20.383Z" fill="white" fill-opacity="0.6"/>
<defs>
<clipPath id="clip0_23_1308">
<rect width="40" height="40" fill="white" transform="translate(0.464294)"/>
</clipPath>
</defs>
</svg>
