<svg width="175" height="40" viewBox="0 0 175 40" fill="none" xmlns="http://www.w3.org/2000/svg">
<g clip-path="url(#clip0_23_1319)">
<path d="M32.4053 30.4051C33.9674 31.9672 33.9674 34.4999 32.4053 36.0619L31.2646 37.2027C29.7025 38.7648 27.1699 38.7648 25.6078 37.2027L21.5993 33.1942L28.3969 26.3966L32.4053 30.4051Z" fill="white" fill-opacity="0.6"/>
<path d="M4.05102 30.4085C2.50155 31.9727 2.50752 34.4951 4.06439 36.0519L5.20504 37.1926C6.77237 38.7599 9.31537 38.7539 10.8753 37.1792L18.2398 29.7445L11.4422 22.9469L4.05102 30.4085Z" fill="white" fill-opacity="0.6"/>
<path fill-rule="evenodd" clip-rule="evenodd" d="M38.6717 1.5351C37.1105 -0.0260675 34.5797 -0.0271353 33.0172 1.53272L18.3 16.2251L10.384 8.30913C9.13258 7.0577 7.10372 7.0577 5.85229 8.30913L3.58638 10.5749C2.33506 11.8264 2.33506 13.8552 3.58638 15.1067L18.2943 29.8146L21.0262 27.0827C21.0656 27.0464 21.1045 27.0091 21.1428 26.9709L39.81 8.33505C41.3744 6.77334 41.3754 4.23884 39.8124 2.67581L38.6717 1.5351Z" fill="white" fill-opacity="0.6"/>
</g>
<path d="M66.3511 29.9231H53.0819V21.2308H64.9281V17.5385H53.0819V9.69231H66.0819V6H48.8511V33.6154H66.3511V29.9231Z" fill="white" fill-opacity="0.6"/>
<path d="M70.7159 33.6154L76.1005 25.5L81.5621 33.6154H86.0236L78.8698 23.3077L85.5621 13.2308H81.3698L76.3313 20.9231L71.2928 13.2308H66.7928L73.5621 23.1923L66.3313 33.6154H70.7159Z" fill="white" fill-opacity="0.6"/>
<path d="M97.5113 33.6154C106.05 33.6154 111.742 27.6923 111.742 19.6538C111.742 11.6154 106.242 6 97.5113 6H86.7421V33.6154H97.5113ZM94.0113 12.2692H97.0882C101.819 12.2692 104.281 14.7692 104.281 19.6538C104.281 24.8462 101.896 27.3462 97.0882 27.3462H94.0113V12.2692Z" fill="white" fill-opacity="0.6"/>
<path d="M122.071 34C128.186 34 132.878 29.1923 132.878 23.2692C132.878 17.3462 128.186 12.5385 122.071 12.5385C115.955 12.5385 111.263 17.3462 111.263 23.2692C111.263 29.1923 115.955 34 122.071 34ZM122.071 28.1154C120.032 28.1154 118.109 26.5 118.109 23.2692C118.109 20.0385 120.032 18.4615 122.071 18.4615C124.109 18.4615 126.032 20.0385 126.032 23.2692C126.032 26.5 124.109 28.1154 122.071 28.1154Z" fill="white" fill-opacity="0.6"/>
<path d="M140.069 22.7308C140.069 19.6154 141.53 18.4615 143.146 18.4615C145.146 18.4615 146.069 19.8846 146.069 22.5V33.6154H152.646V20.3077C152.646 15.2692 149.761 12.5385 145.684 12.5385C143.069 12.5385 141.146 13.6154 139.53 15.4231V12.9231H133.492V33.6154H140.069V22.7308Z" fill="white" fill-opacity="0.6"/>
<path d="M163.721 33.9615C168.875 33.9615 172.529 31.3077 173.798 26.5769H167.221C166.644 28.0769 165.414 28.8462 163.567 28.8462C161.452 28.8462 160.221 27.5385 159.875 24.9231H173.914C175.106 18.1154 170.529 12.5385 163.683 12.5385C157.529 12.5385 153.067 17.0385 153.067 23.2308C153.067 29.6538 157.337 33.9615 163.721 33.9615ZM163.529 17.3846C165.491 17.3846 166.798 18.7308 166.875 20.8077H159.952C160.414 18.5 161.567 17.3846 163.529 17.3846Z" fill="white" fill-opacity="0.6"/>
<defs>
<clipPath id="clip0_23_1319">
<rect width="40" height="40" fill="white" transform="translate(0.851135)"/>
</clipPath>
</defs>
</svg>
