<svg width="142" height="40" viewBox="0 0 142 40" fill="none" xmlns="http://www.w3.org/2000/svg">
<path d="M27.8081 6H5.36175L5.3366 6.13459C5.27732 6.132 5.21778 6.13065 5.15789 6.13065C3.00517 6.13065 1.26001 7.8758 1.26001 10.0285C1.26001 11.5248 2.10295 12.824 3.33987 13.4774L26.4844 19.3039H36.7175L27.8081 6Z" fill="white" fill-opacity="0.6"/>
<path d="M28.3726 21.9306L15.9056 20.6961H14.0675H3.48737L12.3968 34H34.8432L34.8683 33.8654C34.9276 33.868 34.9871 33.8694 35.047 33.8694C37.1997 33.8694 38.9449 32.1242 38.9449 29.9715C38.9449 28.2103 37.7769 26.7219 36.1732 26.2388L28.3726 21.9306Z" fill="white" fill-opacity="0.6"/>
<path d="M48.1025 27.9709C48.1025 31.5588 50.9876 34 55.5371 34C60.0497 34 63.1937 31.7067 63.1937 28.0079C63.1937 25.1968 61.6402 23.7913 58.5702 23.0885L55.2782 22.3118C53.7247 21.9419 52.911 21.2761 52.911 20.2404C52.911 18.8719 53.9467 18.0581 55.7221 18.0581C57.4605 18.0581 58.4962 19.0568 58.5332 20.6103H62.8238C62.7868 17.0594 60.0127 14.6922 55.907 14.6922C51.6904 14.6922 48.6574 16.8375 48.6574 20.4254C48.6574 23.3474 50.2478 24.9009 53.5398 25.6407L56.8317 26.4174C58.4592 26.7873 58.9401 27.4531 58.9401 28.3778C58.9401 29.7094 57.7934 30.5601 55.6851 30.5601C53.6138 30.5601 52.4301 29.5614 52.3932 27.9709H48.1025Z" fill="white" fill-opacity="0.6"/>
<path d="M72.4922 34C77.2636 34 80.5925 31.5958 81.3693 27.6011H77.1896C76.6718 29.3395 75.0443 30.3012 72.5661 30.3012C69.5701 30.3012 67.8686 28.6737 67.5357 25.4557L81.2953 25.4188V24.0502C81.2953 18.354 77.8184 14.6922 72.3442 14.6922C66.9809 14.6922 63.2451 18.6499 63.2451 24.3831C63.2451 30.0423 67.0549 34 72.4922 34ZM72.3812 18.391C75.0813 18.391 76.8198 20.0555 76.8198 22.5707H67.6467C68.0906 19.8336 69.718 18.391 72.3812 18.391Z" fill="white" fill-opacity="0.6"/>
<path d="M87.1446 33.5192V6H82.6691V33.5192H87.1446Z" fill="white" fill-opacity="0.6"/>
<path d="M87.7541 15.247V19.0198H90.3802V33.5192H94.8558V19.0198H99.2204V15.247H94.8558V13.0277C94.8558 11.2153 95.4106 10.0317 97.7039 10.0317H99.2944V6.18494C98.5176 6.03699 97.6669 6 96.9641 6C93.0064 6 90.3802 8.07133 90.3802 13.0277V15.247H87.7541Z" fill="white" fill-opacity="0.6"/>
<path d="M104.756 34C107.605 34 110.083 32.7054 110.86 30.819L111.192 33.5192H115.15V22.4227C115.15 17.3554 112.117 14.6922 107.198 14.6922C102.241 14.6922 98.9863 17.2814 98.9863 21.2391H102.833C102.833 19.3157 104.313 18.2061 106.976 18.2061C109.269 18.2061 110.749 19.2048 110.749 21.683V22.0898L105.274 22.4967C100.947 22.8296 98.5055 24.9379 98.5055 28.3038C98.5055 31.7437 100.873 34 104.756 34ZM106.236 30.5971C104.202 30.5971 103.092 29.7834 103.092 28.1189C103.092 26.6394 104.165 25.7147 106.976 25.4557L110.786 25.1598V26.1215C110.786 28.9326 109.01 30.5971 106.236 30.5971Z" fill="white" fill-opacity="0.6"/>
<path d="M115.866 27.9709C115.866 31.5588 118.751 34 123.301 34C127.813 34 130.957 31.7067 130.957 28.0079C130.957 25.1968 129.404 23.7913 126.334 23.0885L123.042 22.3118C121.488 21.9419 120.674 21.2761 120.674 20.2404C120.674 18.8719 121.71 18.0581 123.485 18.0581C125.224 18.0581 126.26 19.0568 126.297 20.6103H130.587C130.55 17.0594 127.776 14.6922 123.67 14.6922C119.454 14.6922 116.421 16.8375 116.421 20.4254C116.421 23.3474 118.011 24.9009 121.303 25.6407L124.595 26.4174C126.223 26.7873 126.703 27.4531 126.703 28.3778C126.703 29.7094 125.557 30.5601 123.448 30.5601C121.377 30.5601 120.194 29.5614 120.157 27.9709H115.866Z" fill="white" fill-opacity="0.6"/>
<path d="M138.295 33.5192V19.0198H141.846V15.247H138.295V9.55086H133.783V15.247H130.269V19.0198H133.783V33.5192H138.295Z" fill="white" fill-opacity="0.6"/>
</svg>
