<svg width="152" height="41" viewBox="0 0 152 41" fill="none" xmlns="http://www.w3.org/2000/svg">
<path fill-rule="evenodd" clip-rule="evenodd" d="M16.6667 6.5L16.6667 24.5L6.66669 24.5C5.56212 24.5 4.66669 25.3954 4.66669 26.5V34.5C4.66669 35.6046 5.56212 36.5 6.66669 36.5H14.6667C15.7713 36.5 16.6667 35.6046 16.6667 34.5L16.6667 24.5H34.6667C35.7713 24.5 36.6667 23.6046 36.6667 22.5V6.5C36.6667 5.39543 35.7713 4.5 34.6667 4.5H18.6667C17.5621 4.5 16.6667 5.39543 16.6667 6.5Z" fill="white"/>
<path d="M48.5 32.4998V8.49979H54.42C56.2333 8.49979 57.6733 9.04379 58.74 10.1318C59.8067 11.2091 60.34 12.6385 60.34 14.4198V17.6198C60.34 19.3905 59.8067 20.8198 58.74 21.9078C57.6733 22.9958 56.2333 23.5398 54.42 23.5398H52.82V32.4998H48.5ZM52.82 19.2198H54.42C54.932 19.2198 55.3267 19.0758 55.604 18.7878C55.8813 18.4891 56.02 18.0998 56.02 17.6198V14.4198C56.02 13.9398 55.8813 13.5558 55.604 13.2678C55.3267 12.9691 54.932 12.8198 54.42 12.8198H52.82V19.2198Z" fill="white"/>
<path d="M60.0502 32.4998L64.5942 8.49979H69.2662L73.7143 32.4998H69.2983L68.7542 28.7558H65.0422L64.4662 32.4998H60.0502ZM65.6822 24.4358H68.1143L66.6423 14.3238H67.2183L65.6822 24.4358Z" fill="white"/>
<path d="M77.3465 32.4998V21.6198L72.3225 8.49979H76.7385L80.1305 18.6438H78.9145L82.2105 8.49979H86.6265L81.6665 21.6198V32.4998H77.3465Z" fill="white"/>
<path d="M93.2625 33.0118C91.5238 33.0118 90.1265 32.4678 89.0705 31.3798C88.0252 30.2918 87.5025 28.8625 87.5025 27.0918V26.1318H90.5425V27.0918C90.5425 27.9558 90.7878 28.6545 91.2785 29.1878C91.7692 29.7105 92.4305 29.9718 93.2625 29.9718C94.0945 29.9718 94.7558 29.7105 95.2465 29.1878C95.7372 28.6545 95.9825 27.9558 95.9825 27.0918V25.0758C95.9825 24.5851 95.9665 24.2011 95.9345 23.9238C95.9025 23.6358 95.8065 23.4065 95.6465 23.2358C95.4865 23.0651 95.2198 22.9051 94.8465 22.7558C94.4732 22.5958 93.9452 22.4091 93.2625 22.1958C91.8225 21.7371 90.7078 21.3531 89.9185 21.0438C89.1292 20.7238 88.5638 20.3878 88.2225 20.0358C87.8812 19.6731 87.6732 19.2038 87.5985 18.6278C87.5345 18.0518 87.5025 17.2678 87.5025 16.2758V13.9078C87.5025 12.1265 88.0252 10.6971 89.0705 9.61979C90.1265 8.53179 91.5238 7.98779 93.2625 7.98779C95.0118 7.98779 96.4092 8.53179 97.4545 9.61979C98.4998 10.6971 99.0225 12.1265 99.0225 13.9078V14.8678H95.9825V13.9078C95.9825 13.0438 95.7372 12.3505 95.2465 11.8278C94.7558 11.2945 94.0945 11.0278 93.2625 11.0278C92.4305 11.0278 91.7692 11.2945 91.2785 11.8278C90.7878 12.3505 90.5425 13.0438 90.5425 13.9078V16.2758C90.5425 16.7558 90.5585 17.1398 90.5905 17.4278C90.6332 17.7051 90.7292 17.9345 90.8785 18.1158C91.0385 18.2865 91.3052 18.4465 91.6785 18.5958C92.0625 18.7451 92.5905 18.9318 93.2625 19.1558C94.7025 19.6145 95.8172 19.9985 96.6065 20.3078C97.3958 20.6171 97.9612 20.9531 98.3025 21.3158C98.6438 21.6678 98.8465 22.1318 98.9105 22.7078C98.9852 23.2838 99.0225 24.0731 99.0225 25.0758V27.0918C99.0225 28.8625 98.4998 30.2918 97.4545 31.3798C96.4092 32.4678 95.0118 33.0118 93.2625 33.0118Z" fill="white"/>
<path d="M113.582 26.1318V27.0918C113.582 28.8625 113.059 30.2918 112.014 31.3798C110.968 32.4678 109.571 33.0118 107.822 33.0118C106.083 33.0118 104.686 32.4678 103.63 31.3798C102.584 30.2918 102.062 28.8625 102.062 27.0918V13.9078C102.062 12.1265 102.584 10.6971 103.63 9.61979C104.686 8.53179 106.083 7.98779 107.822 7.98779C109.571 7.98779 110.968 8.53179 112.014 9.61979C113.059 10.6971 113.582 12.1265 113.582 13.9078V14.8678H110.542V13.9078C110.542 13.0438 110.296 12.3505 109.806 11.8278C109.315 11.2945 108.654 11.0278 107.822 11.0278C106.99 11.0278 106.328 11.2945 105.838 11.8278C105.347 12.3505 105.102 13.0438 105.102 13.9078V27.0918C105.102 27.9558 105.347 28.6545 105.838 29.1878C106.328 29.7105 106.99 29.9718 107.822 29.9718C108.654 29.9718 109.315 29.7105 109.806 29.1878C110.296 28.6545 110.542 27.9558 110.542 27.0918V26.1318H113.582Z" fill="white"/>
<path d="M114.65 32.4998L119.642 8.49979H122.906L127.85 32.4998H124.73L123.866 28.0518H118.65L117.77 32.4998H114.65ZM119.162 25.0118H123.354L121.05 12.7398H121.498L119.162 25.0118Z" fill="white"/>
<path d="M133.266 8.49979V29.4598H139.346V32.4998H130.226V8.49979H133.266Z" fill="white"/>
<path d="M151.361 8.49979V11.5398H144.641V18.7398H150.497V21.7798H144.641V29.4598H151.361V32.4998H141.601V8.49979H151.361Z" fill="white"/>
</svg>
