<svg width="167" height="41" viewBox="0 0 167 41" fill="none" xmlns="http://www.w3.org/2000/svg">
<g clip-path="url(#clip0_30_3308)">
<path fill-rule="evenodd" clip-rule="evenodd" d="M40.5 20.4998L27.1667 33.8331L20.5 27.1665L27.1667 20.4998L20.5 13.8331L27.1667 7.1665L40.5 20.4998ZM19.7143 14.6188L13.8333 20.4998L19.7144 26.3808L25.5953 20.4998L19.7143 14.6188Z" fill="white"/>
<path d="M13.8333 8.73834L2.07135 20.5003L13.8333 32.2623L19.7143 26.3813L20.5 27.167L13.8333 33.8337L0.5 20.5003L13.8333 7.16699L20.5 13.8337L19.7143 14.6193L13.8333 8.73834Z" fill="white"/>
</g>
<path d="M51.404 26.98C50.604 26.98 49.916 26.7 49.34 26.14C48.78 25.564 48.5 24.876 48.5 24.076V15.964C48.5 15.164 48.78 14.484 49.34 13.924C49.916 13.348 50.604 13.06 51.404 13.06H59.756C60.572 13.06 61.26 13.348 61.82 13.924C62.396 14.484 62.684 15.164 62.684 15.964V24.076C62.684 24.876 62.396 25.564 61.82 26.14C61.26 26.7 60.572 26.98 59.756 26.98H51.404ZM51.404 25.012H59.756C60.012 25.012 60.228 24.924 60.404 24.748C60.596 24.556 60.692 24.332 60.692 24.076V15.964C60.692 15.708 60.596 15.492 60.404 15.316C60.228 15.124 60.012 15.028 59.756 15.028H51.404C51.148 15.028 50.924 15.124 50.732 15.316C50.556 15.492 50.468 15.708 50.468 15.964V24.076C50.468 24.332 50.556 24.556 50.732 24.748C50.924 24.924 51.148 25.012 51.404 25.012Z" fill="white"/>
<path d="M71.7725 26.98L64.0925 13.06H66.3965L72.9245 25.06L79.4525 13.06H81.7565L74.0525 26.98H71.7725Z" fill="white"/>
<path d="M85.9509 26.98C85.1509 26.98 84.4629 26.7 83.8869 26.14C83.3269 25.564 83.0469 24.876 83.0469 24.076V15.964C83.0469 15.164 83.3269 14.484 83.8869 13.924C84.4629 13.348 85.1509 13.06 85.9509 13.06H94.3029C95.1189 13.06 95.8069 13.348 96.3669 13.924C96.9429 14.484 97.2309 15.164 97.2309 15.964V21.004H85.0149V24.076C85.0149 24.332 85.1029 24.556 85.2789 24.748C85.4709 24.924 85.6949 25.012 85.9509 25.012H97.2309V26.98H85.9509ZM85.0149 19.036H95.2389V15.964C95.2389 15.708 95.1429 15.492 94.9509 15.316C94.7749 15.124 94.5589 15.028 94.3029 15.028H85.9509C85.6949 15.028 85.4709 15.124 85.2789 15.316C85.1029 15.492 85.0149 15.708 85.0149 15.964V19.036Z" fill="white"/>
<path d="M99.5709 26.98V15.964C99.5709 15.164 99.8509 14.484 100.411 13.924C100.987 13.348 101.675 13.06 102.475 13.06H110.299V15.028H102.475C102.219 15.028 101.995 15.124 101.803 15.316C101.627 15.492 101.539 15.708 101.539 15.964V26.98H99.5709Z" fill="white"/>
<path d="M114.756 26.98C113.956 26.98 113.268 26.7 112.692 26.14C112.132 25.564 111.852 24.876 111.852 24.076V8.5H113.82V24.076C113.82 24.332 113.908 24.556 114.084 24.748C114.276 24.924 114.5 25.012 114.756 25.012H117.108V26.98H114.756Z" fill="white"/>
<path d="M121.764 26.98C120.964 26.98 120.276 26.7 119.7 26.14C119.14 25.564 118.86 24.876 118.86 24.076V19.036H131.052V15.964C131.052 15.708 130.956 15.492 130.764 15.316C130.588 15.124 130.372 15.028 130.116 15.028H118.86V13.06H130.116C130.932 13.06 131.62 13.348 132.18 13.924C132.756 14.484 133.044 15.164 133.044 15.964V26.98H121.764ZM121.764 25.012H131.052V21.004H120.828V24.076C120.828 24.332 120.916 24.556 121.092 24.748C121.284 24.924 121.508 25.012 121.764 25.012Z" fill="white"/>
<path d="M137.852 32.5V30.508H146.54C146.796 30.508 147.012 30.412 147.188 30.22C147.38 30.044 147.476 29.828 147.476 29.572V26.98H138.188C137.388 26.98 136.7 26.7 136.124 26.14C135.564 25.564 135.284 24.876 135.284 24.076V13.108H137.252V24.076C137.252 24.332 137.34 24.556 137.516 24.748C137.708 24.924 137.932 25.012 138.188 25.012H146.54C146.796 25.012 147.012 24.924 147.188 24.748C147.38 24.556 147.476 24.332 147.476 24.076V13.108H149.444V29.572C149.444 30.388 149.164 31.076 148.604 31.636C148.044 32.212 147.356 32.5 146.54 32.5H137.852Z" fill="white"/>
<path d="M154.762 26.98C153.962 26.98 153.274 26.7 152.698 26.14C152.138 25.564 151.858 24.876 151.858 24.076V23.884H153.826V24.076C153.826 24.332 153.914 24.556 154.09 24.748C154.282 24.924 154.506 25.012 154.762 25.012H163.114C163.37 25.012 163.586 24.924 163.762 24.748C163.954 24.556 164.05 24.332 164.05 24.076V21.94C164.05 21.684 163.954 21.468 163.762 21.292C163.586 21.1 163.37 21.004 163.114 21.004H154.762C153.962 21.004 153.274 20.724 152.698 20.164C152.138 19.588 151.858 18.9 151.858 18.1V15.964C151.858 15.164 152.138 14.484 152.698 13.924C153.274 13.348 153.962 13.06 154.762 13.06H163.114C163.93 13.06 164.618 13.348 165.178 13.924C165.754 14.484 166.042 15.164 166.042 15.964V16.156H164.05V15.964C164.05 15.708 163.954 15.492 163.762 15.316C163.586 15.124 163.37 15.028 163.114 15.028H154.762C154.506 15.028 154.282 15.124 154.09 15.316C153.914 15.492 153.826 15.708 153.826 15.964V18.1C153.826 18.356 153.914 18.58 154.09 18.772C154.282 18.948 154.506 19.036 154.762 19.036H163.114C163.93 19.036 164.618 19.324 165.178 19.9C165.754 20.46 166.042 21.14 166.042 21.94V24.076C166.042 24.876 165.754 25.564 165.178 26.14C164.618 26.7 163.93 26.98 163.114 26.98H154.762Z" fill="white"/>
<defs>
<clipPath id="clip0_30_3308">
<rect width="40" height="40" fill="white" transform="translate(0.5 0.5)"/>
</clipPath>
</defs>
</svg>
