<svg width="143" height="41" viewBox="0 0 143 41" fill="none" xmlns="http://www.w3.org/2000/svg">
<path d="M28.2056 6.5H5.75921L5.73406 6.63459C5.67478 6.632 5.61524 6.63065 5.55535 6.63065C3.40263 6.63065 1.65747 8.3758 1.65747 10.5285C1.65747 12.0248 2.50041 13.324 3.73733 13.9774L26.8818 19.8039H37.115L28.2056 6.5Z" fill="white"/>
<path d="M28.7701 22.4306L16.3031 21.1961H14.4649H3.88483L12.7943 34.5H35.2406L35.2658 34.3654C35.3251 34.368 35.3846 34.3694 35.4445 34.3694C37.5972 34.3694 39.3424 32.6242 39.3424 30.4715C39.3424 28.7103 38.1744 27.2219 36.5707 26.7388L28.7701 22.4306Z" fill="white"/>
<path d="M48.5 28.4709C48.5 32.0588 51.3851 34.5 55.9346 34.5C60.4472 34.5 63.5911 32.2067 63.5911 28.5079C63.5911 25.6968 62.0376 24.2913 58.9676 23.5885L55.6757 22.8118C54.1222 22.4419 53.3085 21.7761 53.3085 20.7404C53.3085 19.3719 54.3441 18.5581 56.1196 18.5581C57.858 18.5581 58.8937 19.5568 58.9306 21.1103H63.2213C63.1843 17.5594 60.4102 15.1922 56.3045 15.1922C52.0878 15.1922 49.0548 17.3375 49.0548 20.9254C49.0548 23.8474 50.6453 25.4009 53.9373 26.1407L57.2292 26.9174C58.8567 27.2873 59.3375 27.9531 59.3375 28.8778C59.3375 30.2094 58.1909 31.0601 56.0826 31.0601C54.0112 31.0601 52.8276 30.0614 52.7906 28.4709H48.5Z" fill="white"/>
<path d="M72.8896 34.5C77.6611 34.5 80.99 32.0958 81.7668 28.1011H77.5871C77.0693 29.8395 75.4418 30.8012 72.9636 30.8012C69.9676 30.8012 68.2661 29.1737 67.9332 25.9557L81.6928 25.9188V24.5502C81.6928 18.854 78.2159 15.1922 72.7417 15.1922C67.3784 15.1922 63.6426 19.1499 63.6426 24.8831C63.6426 30.5423 67.4524 34.5 72.8896 34.5ZM72.7787 18.891C75.4788 18.891 77.2172 20.5555 77.2172 23.0707H68.0442C68.488 20.3336 70.1155 18.891 72.7787 18.891Z" fill="white"/>
<path d="M87.5421 34.0192V6.5H83.0665V34.0192H87.5421Z" fill="white"/>
<path d="M88.1515 15.747V19.5198H90.7777V34.0192H95.2533V19.5198H99.6179V15.747H95.2533V13.5277C95.2533 11.7153 95.8081 10.5317 98.1013 10.5317H99.6918V6.68494C98.9151 6.53699 98.0644 6.5 97.3616 6.5C93.4039 6.5 90.7777 8.57133 90.7777 13.5277V15.747H88.1515Z" fill="white"/>
<path d="M105.154 34.5C108.002 34.5 110.48 33.2054 111.257 31.319L111.59 34.0192H115.548V22.9227C115.548 17.8554 112.515 15.1922 107.595 15.1922C102.639 15.1922 99.3838 17.7814 99.3838 21.7391H103.231C103.231 19.8157 104.71 18.7061 107.373 18.7061C109.666 18.7061 111.146 19.7048 111.146 22.183V22.5898L105.672 22.9967C101.344 23.3296 98.9029 25.4379 98.9029 28.8038C98.9029 32.2437 101.27 34.5 105.154 34.5ZM106.633 31.0971C104.599 31.0971 103.489 30.2834 103.489 28.6189C103.489 27.1394 104.562 26.2147 107.373 25.9557L111.183 25.6598V26.6215C111.183 29.4326 109.408 31.0971 106.633 31.0971Z" fill="white"/>
<path d="M116.263 28.4709C116.263 32.0588 119.148 34.5 123.698 34.5C128.211 34.5 131.355 32.2067 131.355 28.5079C131.355 25.6968 129.801 24.2913 126.731 23.5885L123.439 22.8118C121.886 22.4419 121.072 21.7761 121.072 20.7404C121.072 19.3719 122.107 18.5581 123.883 18.5581C125.621 18.5581 126.657 19.5568 126.694 21.1103H130.985C130.948 17.5594 128.174 15.1922 124.068 15.1922C119.851 15.1922 116.818 17.3375 116.818 20.9254C116.818 23.8474 118.409 25.4009 121.701 26.1407L124.993 26.9174C126.62 27.2873 127.101 27.9531 127.101 28.8778C127.101 30.2094 125.954 31.0601 123.846 31.0601C121.775 31.0601 120.591 30.0614 120.554 28.4709H116.263Z" fill="white"/>
<path d="M138.693 34.0192V19.5198H142.243V15.747H138.693V10.0509H134.18V15.747H130.666V19.5198H134.18V34.0192H138.693Z" fill="white"/>
</svg>
