<svg width="89" height="80" viewBox="0 0 89 80" fill="none" xmlns="http://www.w3.org/2000/svg">
<rect x="3" y="3" width="83" height="74" fill="url(#paint0_linear_727_353)"/>
<path d="M27.9376 50.3352C31.7082 50.3352 33.4398 48.1566 34.3336 45.5033L31.5126 44.5536C30.9261 46.3412 30.1161 47.7377 27.9097 47.7377C25.1446 47.7377 23.9436 45.4753 23.9436 41.9003V38.6046C23.9436 35.0295 25.1446 32.7672 27.9097 32.7672C30.1161 32.7672 30.9261 34.1637 31.5126 35.9512L34.3336 35.0016C33.4398 32.3482 31.7082 30.1697 27.9376 30.1697C22.994 30.1697 20.6199 33.8006 20.6199 40.2524C20.6199 46.7043 22.994 50.3352 27.9376 50.3352ZM45.4947 48.2683V42.7103H50.7734V40.2245H45.4947V34.6664H42.7575V40.2245H37.4787V42.7103H42.7575V48.2683H45.4947ZM62.2417 48.2683V42.7103H67.5205V40.2245H62.2417V34.6664H59.5046V40.2245H54.2258V42.7103H59.5046V48.2683H62.2417Z" fill="white"/>
<g opacity="0.54">
<path d="M17.8284 12.1716L12.1715 17.8285" stroke="white" stroke-width="1.37931"/>
<path d="M12.1716 12.1716L17.8285 17.8285" stroke="white" stroke-width="1.37931"/>
</g>
<rect x="1.75" y="1.75" width="85.5" height="76.5" stroke="url(#paint1_linear_727_353)" stroke-opacity="0.8" stroke-width="2.5"/>
<defs>
<linearGradient id="paint0_linear_727_353" x1="44.5" y1="3" x2="44.5" y2="77" gradientUnits="userSpaceOnUse">
<stop stop-color="#22292D"/>
<stop offset="1" stop-color="#050B10"/>
</linearGradient>
<linearGradient id="paint1_linear_727_353" x1="44.5" y1="3" x2="44.5" y2="77" gradientUnits="userSpaceOnUse">
<stop stop-color="white"/>
<stop offset="1" stop-color="white" stop-opacity="0"/>
</linearGradient>
</defs>
</svg>
