<svg width="105" height="101" viewBox="0 0 105 101" fill="none" xmlns="http://www.w3.org/2000/svg">
<rect x="3" y="2.93066" width="99" height="94.935" fill="url(#paint0_linear_727_335)"/>
<path fill-rule="evenodd" clip-rule="evenodd" d="M50.1415 22.2204C50.518 22.4243 50.9536 22.4799 51.3624 22.3873L55.6228 29.7666C55.1044 30.3144 54.9827 31.1579 55.3791 31.8444C55.8623 32.6814 56.9326 32.9682 57.7696 32.485C58.4409 32.0974 58.7583 31.3322 58.6083 30.6126L66.2578 26.1962C66.8056 26.7147 67.6491 26.8364 68.3356 26.44C69.1726 25.9567 69.4594 24.8864 68.9762 24.0494C68.4929 23.2124 67.4226 22.9256 66.5856 23.4089C65.8991 23.8053 65.5827 24.5966 65.7578 25.3302L58.133 29.7324C57.7039 29.3022 57.0778 29.126 56.4889 29.2666L52.2334 21.8959C52.8949 21.2109 52.8876 20.1193 52.2115 19.4432C51.5281 18.7598 50.4201 18.7598 49.7367 19.4432C49.1761 20.0038 49.0753 20.85 49.4343 21.5133L38.3717 32.5759C37.7084 32.2169 36.8622 32.3177 36.3016 32.8783C35.6182 33.5617 35.6182 34.6697 36.3016 35.3531C36.985 36.0365 38.0931 36.0365 38.7765 35.3531C39.3371 34.7926 39.4378 33.9463 39.0788 33.2831L50.1415 22.2204Z" fill="white"/>
<path d="M30.6189 70.8657H33.747V51.3706H30.6189V59.6658H24.1391V51.3706H21.011V70.8657H24.1391V62.2912H30.6189V70.8657ZM51.8068 53.996V51.3706H36.4453V53.996H42.562V70.8657H45.6902V53.996H51.8068ZM64.923 70.8657H67.6881V51.3706H64.0851L61.0687 59.1072H60.8732L57.8847 51.3706H54.0583V70.8657H56.8233V61.5371L56.7395 55.6718H56.963L60.8732 65.6987L64.7834 55.6718H65.0068L64.923 61.5371V70.8657ZM84.2676 70.8657V68.2403H75.3859V51.3706H72.2577V70.8657H84.2676Z" fill="white"/>
<g opacity="0.54">
<path d="M17.8284 12.1023L12.1716 17.7591" stroke="white" stroke-width="1.37931"/>
<path d="M12.1716 12.1023L17.8284 17.7591" stroke="white" stroke-width="1.37931"/>
</g>
<rect x="1.75" y="1.68066" width="101.5" height="97.435" stroke="url(#paint1_linear_727_335)" stroke-opacity="0.8" stroke-width="2.5"/>
<defs>
<linearGradient id="paint0_linear_727_335" x1="52.5" y1="2.93066" x2="52.5" y2="97.8657" gradientUnits="userSpaceOnUse">
<stop stop-color="#22292D"/>
<stop offset="1" stop-color="#050B10"/>
</linearGradient>
<linearGradient id="paint1_linear_727_335" x1="52.5" y1="2.93066" x2="52.5" y2="97.8657" gradientUnits="userSpaceOnUse">
<stop stop-color="white"/>
<stop offset="1" stop-color="white" stop-opacity="0"/>
</linearGradient>
</defs>
</svg>
